<?xml version="1.0" encoding="UTF-8"?>
<!DOCTYPE svg PUBLIC "-//W3C//DTD SVG 1.1//EN" "http://www.w3.org/Graphics/SVG/1.1/DTD/svg11.dtd">
<!-- Creator: CorelDRAW -->
<svg xmlns="http://www.w3.org/2000/svg" xml:space="preserve" width="35.001mm" height="5.1547mm" version="1.1" style="shape-rendering:geometricPrecision; text-rendering:geometricPrecision; image-rendering:optimizeQuality; fill-rule:evenodd; clip-rule:evenodd"
viewBox="0 0 3469.23 510.92"
 xmlns:xlink="http://www.w3.org/1999/xlink"
 xmlns:xodm="http://www.corel.com/coreldraw/odm/2003">
 <defs>
  <style type="text/css">
   <![CDATA[
    .str0 {stroke:#3FAB3C;stroke-width:7.55;stroke-miterlimit:22.9256}
    .fil0 {fill:#3FAB3C}
    .fil1 {fill:#2B2A29;fill-rule:nonzero}
   ]]>
  </style>
 </defs>
 <g id="Vrstva_x0020_1">
  <metadata id="CorelCorpID_0Corel-Layer"/>
  <g id="_2420090312480">
   <path class="fil0 str0" d="M78.89 160.98c98.11,-48.77 206.42,-62.44 288.03,-76.91 225.75,-102.86 535.27,-125.33 711.96,42.93 -22.8,-10.69 -45.6,-21.4 -68.4,-32.09 -45.17,-28.85 -91.83,-48.01 -138.9,-59.81 1.34,15.81 8.93,72.39 11.97,95.42 39.51,-5.21 77.76,-9.97 112.57,-15.57 30.56,-3.82 59.51,13.69 85.12,15 -42.69,-1.67 -70.64,4.88 -94.61,6.88 -220.27,30.97 -453.22,24.34 -518.12,248.76 -77.41,-0.89 -239.97,-6.14 -346.97,-24.39 -54.86,-20.46 -77.77,-27.42 -105.91,-48.74 -5.63,-49.25 7.76,-120.73 63.27,-151.47zm318.21 -71.91l302.75 46.64c5.17,-7.82 62.8,-79.16 98.45,-96.39 12.41,-6.02 30.3,-10.93 49.11,-9.64 -166.27,-32.91 -325,17.64 -450.31,59.4zm-10.47 3.46c-67.87,13.07 -314.1,54.78 -339.74,110.08 -2.76,5.97 -0.74,10.78 0.32,16.88 -0.95,2.98 -1.92,6.42 -2.15,8.9 -0.27,1.31 3.15,4.96 11.64,7.19 2.38,0.63 2.94,-0.47 6.64,-1.54 4,-1.16 10.97,-1.23 14.14,-1.19 17.41,0.19 88.04,24.9 116.62,26.66 4.14,0.26 7.31,7.67 11.13,8.04 -24.07,32.03 -31.69,40.81 -49.81,58.69 4.52,-1.43 -7.76,2.69 -20.99,7.64 -24.51,-0.72 -114.03,-36.92 -115.01,-50.01 -0.22,4.37 1.53,16.13 1.51,20.09 22.24,11.35 60.52,35.19 117.16,44.57 90.7,15.03 206.45,14.99 247.39,15.49 20.32,1.68 56.91,17.98 70.71,19.77 18.33,-59.19 56.26,-135.3 111.55,-169.33 75.49,-46.48 183.43,-65.8 286.55,-80.02 -1.91,-11.39 1.29,-85.93 1.25,-93.89 -64.04,-10.06 -105.96,53.03 -143.62,101.62l-197.2 -31.25c-149.91,29.29 -305.36,75.84 -436.67,115.28 141.44,-57.01 292.97,-95.31 424.84,-117.16l-116.27 -16.52zm-221.47 233.53l250.28 -3.04 44.08 -71.58 -45.03 58.18 -50.81 -12.89 -198.52 29.33zm55.68 -65.16l40.21 -1.48 -5.46 7.31 -33.76 -3.84 -0.99 -2zm48.8 -1.3l52.98 -1.51 -4.04 8.95 -45.73 -5.39 -3.2 -2.05zm60.4 -0.05l109.95 -2.85 -26.23 36.46 -80.59 -30.46 -3.13 -3.14zm-312.66 80.63c148.64,83.56 190.95,83.5 348.15,90.76 27.12,4.84 52.7,12.22 83.61,16.93l-5.3 20.56c-217.43,-29.41 -284.65,-7.77 -426.52,-114.06l0.06 -14.19zm632.72 -193.38c-81.39,12.13 -173.67,32.86 -264.46,48.68 -76.92,13.4 -152.74,21.59 -220.02,35.63 146.99,0.71 327.2,-36.97 484.48,-84.31zm-35.04 319.64c-30.43,8.42 -43.09,-5.05 -49.79,-8.42 117.07,28.57 143.27,-203.56 24.67,-131.74 111.52,-80.03 107.28,117.45 25.12,140.15zm-3.71 -217.33c42.6,5.55 50.73,39 57.16,49.82 -142.1,-143.14 -251.07,248.5 -62.92,198.43 -128.41,48.88 -132.7,-95.24 -88.49,-182.78 20.14,-39.87 51.64,-71.02 94.25,-65.47zm-572.34 -45.13c0.18,6.13 2.56,10.96 3.03,16.03 0.34,3.7 -3.66,8.53 -2.12,11.06 3.44,5.66 9.87,8.12 15.93,10.75 2.14,-2.12 18.16,-2.69 29.44,-0.05 23.48,5.47 60.2,17.17 107.39,26.65 -14.59,20.35 -29.49,39.1 -49.47,57.44 -40.76,-8.88 -85.2,-13.03 -118.4,-44.64 -5.07,-15.06 -3.43,-51.23 14.19,-77.24z"/>
   <path class="fil1" d="M704.05 485.05c-2.42,0 -3.15,-1.14 -2.12,-3.37l156.3 -303.56c0.72,-1.3 1.46,-2.16 2.19,-2.67 0.65,-0.5 1.83,-0.71 3.44,-0.71l70.39 0c2.79,0 4.17,1.22 4.32,3.74l41.96 302.78c0.15,2.51 -0.95,3.8 -3.44,3.8l-54.39 0c-2.71,0 -4.09,-1.29 -4.24,-3.8l-6.87 -59.32 -117.77 0 -29.39 59.75c-0.73,1.29 -1.39,2.15 -2.12,2.66 -0.73,0.51 -1.9,0.71 -3.44,0.71l-54.82 0zm185.24 -256.02l-70.47 142.41 87 0 -16.52 -142.41z"/>
   <path class="fil1" d="M1137.78 490.95c-18.86,0 -35.53,-2.09 -49.94,-6.32 -14.4,-4.16 -26.17,-10.77 -35.24,-19.67 -9.06,-8.91 -15.2,-20.26 -18.42,-34.05 -3.22,-13.86 -2.92,-30.37 0.72,-49.55l38.39 -202.88c0.29,-1.51 0.72,-2.52 1.24,-3.02 0.58,-0.5 1.68,-0.71 3.21,-0.71l49.05 0c2.57,0 3.66,1.22 3.22,3.74l-35.52 190.02c-2.42,12.06 -3.37,22.33 -2.71,30.95 0.65,8.54 2.99,15.58 7.09,21.26 4.09,5.6 10.09,9.69 18.13,12.27 7.97,2.59 18.21,3.89 30.56,3.89 12.43,0 23.17,-1.3 32.17,-3.89 8.99,-2.58 16.66,-6.67 23.09,-12.2 6.43,-5.53 11.7,-12.64 15.65,-21.26 4.01,-8.61 7.16,-18.96 9.43,-31.02l35.97 -190.02c0.29,-1.51 0.72,-2.52 1.32,-3.02 0.58,-0.5 1.61,-0.71 3.21,-0.71l48.4 0c2.55,0 3.65,1.22 3.21,3.74l-38.38 202.88c-4.09,21.84 -10.31,39.86 -18.5,53.93 -8.19,14.07 -18.35,25.29 -30.49,33.54 -12.13,8.33 -26.17,14.07 -42.03,17.31 -15.8,3.23 -33.49,4.82 -52.86,4.82z"/>
   <path class="fil1" d="M1397.73 485.05c-2.56,0 -3.66,-1.29 -3.21,-3.8l47.95 -253.51 -88.45 0c-2.57,0 -3.66,-1.29 -3.22,-3.81l8.77 -45.46c0.3,-1.51 0.73,-2.52 1.32,-3.02 0.58,-0.5 1.61,-0.71 3.21,-0.71l233.65 0c2.56,0 3.65,1.22 3.21,3.74l-8.77 45.46c-0.29,1.58 -0.72,2.59 -1.31,3.09 -0.52,0.5 -1.62,0.71 -3.15,0.71l-88.45 0 -48.03 253.51c-0.29,1.58 -0.65,2.58 -1.24,3.08 -0.58,0.51 -1.69,0.71 -3.22,0.71l-49.05 0z"/>
   <path class="fil1" d="M1703.32 490.95c-20.54,0 -38.23,-2.81 -53.08,-8.34 -14.91,-5.53 -26.68,-14.21 -35.38,-26.07 -8.7,-11.85 -14.18,-26.93 -16.38,-45.32 -2.18,-18.39 -0.94,-40.43 3.74,-66.07l5.78 -30.94c5.47,-29.02 12.65,-52.93 21.64,-71.75 8.99,-18.81 19.88,-33.61 32.68,-44.52 12.79,-10.84 27.63,-18.39 44.44,-22.62 16.81,-4.16 35.89,-6.25 57.17,-6.25 20.54,0 38.23,2.74 53,8.2 14.77,5.45 26.53,14.07 35.24,25.85 8.69,11.78 14.18,26.86 16.37,45.24 2.27,18.39 1.02,40.51 -3.73,66.29l-5.56 30.95c-5.41,29.01 -12.57,52.93 -21.57,71.74 -8.91,18.74 -19.8,33.61 -32.6,44.45 -12.87,10.91 -27.7,18.46 -44.59,22.77 -16.81,4.23 -35.89,6.39 -57.17,6.39zm49.94 -266.37c-11.55,0 -22.08,1.44 -31.51,4.24 -9.44,2.8 -17.77,7.53 -25.08,14.29 -7.24,6.75 -13.52,15.72 -18.86,26.93 -5.26,11.2 -9.43,25.21 -12.58,42.09l-6.2 35.11c-3.29,16.95 -4.61,31.1 -3.88,42.37 0.72,11.35 3.29,20.33 7.82,27.08 4.46,6.75 10.96,11.49 19.37,14.29 8.42,2.8 18.79,4.23 31.07,4.23 11.7,0 22.3,-1.44 31.8,-4.31 9.51,-2.86 17.91,-7.75 25.3,-14.57 7.31,-6.75 13.59,-15.8 18.78,-27.01 5.26,-11.2 9.36,-25.28 12.35,-42.09l6.88 -34.68c3.14,-16.88 4.38,-30.95 3.73,-42.22 -0.66,-11.28 -3.29,-20.26 -7.97,-27.01 -4.61,-6.75 -11.19,-11.56 -19.67,-14.43 -8.48,-2.87 -18.93,-4.31 -31.36,-4.31z"/>
   <path class="fil1" d="M2067.82 485.05c-1.54,0 -2.71,-0.21 -3.44,-0.71 -0.65,-0.51 -1.39,-1.37 -2.12,-2.66l-63.59 -125.82 -26.76 24.2 -19.08 101.19c-0.29,1.58 -0.72,2.58 -1.24,3.08 -0.59,0.51 -1.69,0.71 -3.22,0.71l-49.05 0c-2.56,0 -3.66,-1.29 -3.21,-3.8l56.94 -302.78c0.3,-1.51 0.73,-2.52 1.32,-3.02 0.52,-0.5 1.61,-0.71 3.21,-0.71l48.85 0c2.55,0 3.58,1.22 3.13,3.74l-22.22 118.7 131.3 -119.92c1.82,-1.72 4.02,-2.52 6.58,-2.52l71.78 0c2.71,0 3.07,0.79 1.1,2.52l-152.72 136.95 89.93 167.47c1.02,2.23 0.29,3.37 -2.12,3.37l-65.36 0z"/>
   <path class="fil1" d="M2180.33 485.05c-2.56,0 -3.66,-1.29 -3.21,-3.8l56.94 -302.78c0.29,-1.51 0.73,-2.52 1.32,-3.02 0.51,-0.5 1.61,-0.71 3.21,-0.71l48.84 0c2.56,0 3.59,1.22 3.14,3.74l-47.52 254.15 119.53 0c2.56,0 3.66,1.3 3.22,3.81l-8.55 44.82c-0.3,1.58 -0.73,2.58 -1.32,3.08 -0.58,0.51 -1.61,0.71 -3.22,0.71l-172.38 0z"/>
   <path class="fil1" d="M2402.43 485.05c-2.56,0 -3.66,-1.29 -3.21,-3.8l56.94 -302.78c0.29,-1.51 0.73,-2.52 1.32,-3.02 0.51,-0.5 1.61,-0.71 3.21,-0.71l189.06 0c2.63,0 3.65,1.22 3.21,3.74l-8.77 45.46c-0.3,1.58 -0.65,2.59 -1.24,3.09 -0.58,0.5 -1.69,0.71 -3.22,0.71l-136.05 0 -13.23 70.24 109 0c2.56,0 3.66,1.3 3.22,3.81l-8.77 45.25c-0.3,1.58 -0.73,2.59 -1.32,3.08 -0.58,0.44 -1.62,0.72 -3.22,0.72l-109 0 -14.99 81.22 135.98 0c2.63,0 3.66,1.23 3.21,3.74l-8.99 45.47c-0.29,1.58 -0.73,2.58 -1.24,3.08 -0.58,0.51 -1.69,0.71 -3.22,0.71l-188.68 0z"/>
   <path class="fil1" d="M2764.81 433.93l0.44 0 124.42 -255.8c0.65,-1.3 1.39,-2.16 2.12,-2.67 0.73,-0.5 1.82,-0.71 3.44,-0.71l54.17 0c2.41,0 3.14,1.08 2.12,3.38l-155.06 303.56c-0.65,1.29 -1.39,2.15 -2.11,2.66 -0.74,0.51 -1.83,0.71 -3.44,0.71l-70.47 0c-2.71,0 -4.09,-1.29 -4.24,-3.8l-39.85 -302.78c-0.15,-2.52 0.95,-3.74 3.44,-3.74l52.63 0c2.49,0 3.88,1.22 4.31,3.74l28.08 255.45z"/>
   <path class="fil1" d="M2938.72 485.05c-2.56,0 -3.66,-1.29 -3.21,-3.8l56.94 -302.78c0.3,-1.51 0.73,-2.52 1.32,-3.02 0.52,-0.5 1.61,-0.71 3.21,-0.71l189.06 0c2.63,0 3.66,1.22 3.21,3.74l-8.77 45.46c-0.29,1.58 -0.65,2.59 -1.24,3.09 -0.58,0.5 -1.69,0.71 -3.22,0.71l-136.05 0 -13.23 70.24 109.01 0c2.55,0 3.65,1.3 3.21,3.81l-8.77 45.25c-0.3,1.58 -0.73,2.59 -1.32,3.08 -0.58,0.44 -1.61,0.72 -3.22,0.72l-108.99 0 -14.99 81.22 135.97 0c2.64,0 3.66,1.23 3.22,3.74l-8.99 45.47c-0.3,1.58 -0.73,2.58 -1.25,3.08 -0.58,0.51 -1.69,0.71 -3.21,0.71l-188.69 0z"/>
   <path class="fil1" d="M3368.96 485.05c-1.54,0 -2.64,-0.21 -3.29,-0.71 -0.66,-0.51 -1.24,-1.44 -1.83,-2.87l-35.96 -107.94 -16.96 0c-6.66,0 -13.31,-0.07 -19.81,-0.29 -6.44,-0.21 -13.82,-0.57 -22.15,-1.15l-20.77 109.17c-0.29,1.58 -0.73,2.58 -1.24,3.08 -0.58,0.51 -1.69,0.71 -3.22,0.71l-49.05 0c-2.56,0 -3.65,-1.29 -3.21,-3.8l57.16 -302.78c0.3,-1.51 0.73,-2.52 1.32,-3.02 0.52,-0.5 1.61,-0.78 3.14,-0.93 16.16,-1.15 31.73,-1.86 46.65,-2.22 14.91,-0.37 29.54,-0.51 44.01,-0.51 27.27,0 49.57,1.37 66.89,4.16 17.4,2.81 30.71,7.61 39.98,14.43 9.29,6.83 14.99,15.95 17.18,27.37 2.27,11.42 1.83,25.71 -1.17,42.8l-4.46 24.85c-2.71,14.29 -6.28,26.36 -10.74,36.27 -4.38,9.91 -9.79,18.1 -16.23,24.63 -6.43,6.54 -13.89,11.57 -22.3,15.22 -8.41,3.67 -17.98,6.39 -28.72,8.27 2.63,5.6 5.26,11.91 7.97,18.88l36.19 92.78c0.87,2.37 0,3.59 -2.56,3.59l-56.8 0zm-30.99 -263.42c-3.29,0 -6.81,0.07 -10.54,0.07 -3.73,0.08 -7.38,0.15 -11.11,0.22 -3.73,0.07 -7.31,0.22 -10.74,0.44 -3.44,0.21 -6.36,0.5 -8.77,0.78l-18.43 99.04c3,0.29 6.21,0.57 9.65,0.79 3.44,0.21 6.95,0.36 10.6,0.43 3.66,0.07 7.25,0.07 10.82,0.14 3.58,0.08 7.02,0.15 10.31,0.15 15.14,0 27.78,-0.43 38.01,-1.37 10.16,-0.93 18.57,-2.94 25.15,-6.03 6.58,-3.09 11.63,-7.54 15.07,-13.43 3.51,-5.89 6.28,-13.79 8.26,-23.77l2.34 -13.51c1.9,-10.05 2.12,-18.09 0.8,-23.99 -1.39,-5.89 -4.83,-10.27 -10.31,-13.21 -5.48,-2.94 -13.22,-4.81 -23.09,-5.6 -9.94,-0.79 -22.59,-1.15 -38.01,-1.15z"/>
  </g>
 </g>
</svg>
